<svg xmlns="http://www.w3.org/2000/svg" viewBox="0 0 256 256" fill="none"><path d="M128 0c19.68 0 36.04 14.213 39.377 32.934C182.974 22.055 204.594 23.574 218.51 37.49s15.434 35.619 4.556 51.216C241.787 91.96 256 108.32 256 128s-14.213 36.04-32.935 39.377c10.879 15.597 9.36 37.217-4.556 51.133s-35.619 15.434-51.216 4.555C164.04 241.787 147.68 256 128 256s-36.041-14.213-39.378-32.935c-15.597 10.879-37.217 9.36-51.133-4.556S22.055 182.974 32.934 167.377C14.213 164.04 0 147.68 0 128s14.213-36.04 32.934-39.378C22.056 73.025 23.574 51.406 37.49 37.49S73.025 22.055 88.622 32.934C91.96 14.213 108.32 0 128 0z" fill="#2F76E8"/></svg>
